<svg width="279" height="75" viewBox="0 0 279 75" fill="none" xmlns="http://www.w3.org/2000/svg">
<path fill-rule="evenodd" clip-rule="evenodd" d="M4.19412 64.3921C1.65805 60.9403 0.338811 56.8036 0.200418 52.029L0.170593 51H20.3027L20.3948 51.898C20.6425 54.3137 21.4619 56.0588 22.7653 57.2534C24.0787 58.3913 25.8259 59 28.1 59C30.4852 59 32.241 58.468 33.4776 57.5172C34.6821 56.5268 35.3 55.1924 35.3 53.4001C35.3 51.9263 34.8024 50.7611 33.8134 49.8271L33.803 49.8173L33.7929 49.8072C32.765 48.7793 31.4454 47.9128 29.8104 47.221L29.8038 47.2182L29.7973 47.2154C28.1874 46.507 25.834 45.6876 22.7145 44.7584L22.7049 44.7556C18.1436 43.3469 14.3907 41.9293 11.4612 40.4986C8.44301 39.0246 5.85656 36.8523 3.70234 34.0032C1.47122 31.0523 0.399999 27.2555 0.399999 22.7C0.399999 15.8914 2.88413 10.487 7.88428 6.61207C12.8353 2.70856 19.2368 0.800049 27 0.800049C34.8917 0.800049 41.3616 2.70623 46.3155 6.61193C51.303 10.4769 53.9525 15.8938 54.2987 22.7496L54.3518 23.8H33.8571L33.8017 22.8588C33.6822 20.8262 32.9511 19.335 31.6631 18.271L31.6534 18.263L31.6438 18.2547C30.3244 17.1074 28.6049 16.5 26.4 16.5C24.5237 16.5 23.1125 17.0097 22.0668 17.9453L22.0556 17.9553L22.0441 17.965C21.0576 18.7957 20.5 20.0488 20.5 21.9C20.5 23.7753 21.346 25.2331 23.2105 26.3402C25.2457 27.5485 28.4932 28.888 33.0078 30.3486L33.0204 30.3527C37.5747 31.8931 41.287 33.3759 44.1428 34.8034C47.1532 36.2744 49.7365 38.4082 51.8904 41.1875C54.1234 44.0687 55.2 47.7337 55.2 52.1C55.2 56.2799 54.1179 60.0977 51.949 63.5284C49.8393 66.9716 46.7567 69.6897 42.7472 71.6945C38.7146 73.7108 33.9885 74.7 28.6 74.7C23.3581 74.7 18.6262 73.8489 14.4208 72.1254C10.2008 70.3958 6.78472 67.8231 4.20196 64.4027L4.19412 64.3921ZM51.1 63C53.1667 59.7334 54.2 56.1 54.2 52.1C54.2 47.9001 53.1667 44.4667 51.1 41.8001C49.0333 39.1334 46.5667 37.1 43.7 35.7C40.9 34.3 37.2333 32.8334 32.7 31.3C28.1667 29.8334 24.8333 28.4667 22.7 27.2C20.5667 25.9334 19.5 24.1667 19.5 21.9C19.5 19.8334 20.1333 18.2667 21.4 17.2C22.6667 16.0667 24.3333 15.5 26.4 15.5C28.8 15.5 30.7667 16.1667 32.3 17.5C33.8333 18.7667 34.6667 20.5334 34.8 22.8H53.3C53.283 22.4629 53.2602 22.1296 53.2317 21.8C52.7021 15.6794 50.1915 10.8794 45.7 7.40005C40.9667 3.66671 34.7333 1.80005 27 1.80005C19.4 1.80005 13.2333 3.66671 8.5 7.40005C3.76666 11.0667 1.4 16.1667 1.4 22.7C1.4 27.1 2.43333 30.6667 4.5 33.4C6.56667 36.1334 9.03333 38.2 11.9 39.6C14.7667 41 18.4667 42.4 23 43.8C26.1333 44.7334 28.5333 45.5667 30.2 46.3C31.9333 47.0334 33.3667 47.9667 34.5 49.1C35.7 50.2334 36.3 51.6667 36.3 53.4001C36.3 55.4667 35.5667 57.1 34.1 58.3001C32.6333 59.4334 30.6333 60 28.1 60C25.6333 60 23.6333 59.3334 22.1 58C20.5667 56.6 19.6667 54.6 19.4 52H1.2C1.20976 52.337 1.22561 52.6703 1.24753 53C1.52496 57.1726 2.77578 60.7726 5 63.8001C7.46667 67.0667 10.7333 69.5334 14.8 71.2C18.8667 72.8667 23.4667 73.7 28.6 73.7C33.8667 73.7 38.4333 72.7334 42.3 70.8C46.1667 68.8667 49.1 66.2667 51.1 63ZM112.623 73L108.423 60.6H82.2234L78.0234 73H60.1234L85.5234 2.80005H105.323L130.723 73H112.623ZM82.9405 61.6L78.7405 74H58.6982L84.8218 1.80005H106.025L132.149 74H111.906L107.706 61.6H82.9405ZM95.3234 21.7L86.7234 47.4001H104.023L95.3234 21.7ZM95.3289 24.8349L88.1126 46.4001H102.629L95.3289 24.8349ZM184.459 26L184.175 25.4771C183.007 23.3259 181.326 21.7039 179.107 20.5945L179.092 20.5869L179.077 20.5789C176.917 19.4065 174.321 18.8 171.254 18.8C165.966 18.8 161.814 20.5401 158.694 23.9727L158.688 23.9795C155.564 27.3534 153.954 31.9229 153.954 37.8C153.954 44.0819 155.633 48.8738 158.874 52.3064C162.18 55.6702 166.731 57.4001 172.654 57.4001C176.678 57.4001 179.992 56.3813 182.657 54.3978L182.666 54.3913C185.082 52.6343 186.94 50.1858 188.222 47H166.954V32.4H206.154V49.4454L206.113 49.5846C204.805 53.9899 202.57 58.075 199.425 61.8373C196.325 65.6246 192.374 68.6765 187.591 70.9996C182.771 73.3405 177.352 74.5 171.354 74.5C164.272 74.5 157.903 72.9664 152.273 69.8767L152.266 69.8732L152.26 69.8696C146.703 66.7139 142.34 62.3507 139.184 56.7939L139.18 56.7857C136.088 51.2197 134.554 44.8822 134.554 37.8C134.554 30.7179 136.088 24.3804 139.18 18.8144L139.182 18.8108C142.337 13.1863 146.702 8.81931 152.264 5.72804C157.831 2.56789 164.17 1.00005 171.254 1.00005C179.819 1.00005 187.098 3.07547 193.031 7.28305C199.034 11.4933 202.999 17.3326 204.922 24.7491L205.246 26H184.459ZM192.454 8.10004C186.721 4.03338 179.654 2.00005 171.254 2.00005C164.321 2.00005 158.154 3.53338 152.754 6.60005C147.354 9.60005 143.121 13.8334 140.054 19.3C137.054 24.7 135.554 30.8667 135.554 37.8C135.554 44.7334 137.054 50.9001 140.054 56.3C143.121 61.7 147.354 65.9334 152.754 69C158.221 72 164.421 73.5 171.354 73.5C177.221 73.5 182.487 72.3667 187.154 70.1001C191.821 67.8334 195.654 64.8667 198.654 61.2C201.721 57.5334 203.887 53.5667 205.154 49.3V33.4H167.954V46H189.654C189.541 46.3401 189.421 46.6735 189.296 47C187.952 50.5148 185.938 53.2481 183.254 55.2C180.387 57.3334 176.854 58.4001 172.654 58.4001C166.521 58.4001 161.687 56.6 158.154 53C154.687 49.3334 152.954 44.2667 152.954 37.8C152.954 31.7334 154.621 26.9 157.954 23.3C161.287 19.6334 165.721 17.8 171.254 17.8C174.454 17.8 177.221 18.4334 179.554 19.7C181.954 20.9 183.787 22.6667 185.054 25H203.954C203.867 24.6633 203.775 24.33 203.679 24C201.724 17.2765 197.983 11.9765 192.454 8.10004ZM213.626 74V1.80005H240.926C248.459 1.80005 255.092 3.29394 260.794 6.31652C266.49 9.33607 270.897 13.6016 273.993 19.1026C277.158 24.5409 278.726 30.8172 278.726 37.9001C278.726 44.9192 277.157 51.1934 273.995 56.6945C270.897 62.1997 266.454 66.466 260.691 69.4851C254.991 72.506 248.393 74 240.926 74H213.626ZM260.226 68.6001C265.826 65.6667 270.126 61.5334 273.126 56.2C276.192 50.8667 277.726 44.7667 277.726 37.9001C277.726 30.9667 276.192 24.8667 273.126 19.6C270.126 14.2667 265.859 10.1334 260.326 7.20004C254.792 4.26671 248.326 2.80005 240.926 2.80005H214.626V73H240.926C248.259 73 254.692 71.5334 260.226 68.6001ZM239.826 57.2C246.108 57.2 250.861 55.4884 254.225 52.1864C257.584 48.8903 259.326 44.1778 259.326 37.9001C259.326 31.6233 257.584 26.8724 254.219 23.5072C250.853 20.1419 246.103 18.4 239.826 18.4H232.726V57.2H239.826ZM239.826 58.2C246.292 58.2 251.326 56.4334 254.926 52.9001C258.526 49.3667 260.326 44.3667 260.326 37.9001C260.326 31.4334 258.526 26.4 254.926 22.8C251.326 19.2 246.292 17.4 239.826 17.4H231.726V58.2H239.826Z" fill="white"/>
</svg>
